<?xml version="1.0" standalone="no"?>
<!DOCTYPE svg PUBLIC "-//W3C//DTD SVG 1.1//EN" "http://www.w3.org/Graphics/SVG/1.1/DTD/svg11.dtd" >
<svg xmlns="http://www.w3.org/2000/svg">
<metadata>
Created by FontForge 20120731 at Wed Mar 23 16:09:17 2016
 By Ads
</metadata>
<defs>
<font id="iconfont" horiz-adv-x="1024" >
  <font-face 
    font-family="iconfont"
    font-weight="500"
    font-stretch="normal"
    units-per-em="1024"
    panose-1="2 0 6 3 0 0 0 0 0 0"
    ascent="896"
    descent="-128"
    x-height="792"
    bbox="0 -212 1024.25 896.115"
    underline-thickness="50"
    underline-position="-100"
    unicode-range="U+0078-E9D2"
  />
<missing-glyph horiz-adv-x="374" 
d="M34 0v682h272v-682h-272zM68 34h204v614h-204v-614z" />
    <glyph glyph-name=".notdef" horiz-adv-x="374" 
d="M34 0v682h272v-682h-272zM68 34h204v614h-204v-614z" />
    <glyph glyph-name=".null" horiz-adv-x="0" 
 />
    <glyph glyph-name="nonmarkingreturn" horiz-adv-x="341" 
 />
    <glyph glyph-name="x" unicode="x" horiz-adv-x="1001" 
d="M281 543q-27 -1 -53 -1h-83q-18 0 -36.5 -6t-32.5 -18.5t-23 -32t-9 -45.5v-76h912v41q0 16 -0.5 30t-0.5 18q0 13 -5 29t-17 29.5t-31.5 22.5t-49.5 9h-133v-97h-438v97zM955 310v-52q0 -23 0.5 -52t0.5 -58t-10.5 -47.5t-26 -30t-33 -16t-31.5 -4.5q-14 -1 -29.5 -0.5
t-29.5 0.5h-32l-45 128h-439l-44 -128h-29h-34q-20 0 -45 1q-25 0 -41 9.5t-25.5 23t-13.5 29.5t-4 30v167h911zM163 247q-12 0 -21 -8.5t-9 -21.5t9 -21.5t21 -8.5q13 0 22 8.5t9 21.5t-9 21.5t-22 8.5zM316 123q-8 -26 -14 -48q-5 -19 -10.5 -37t-7.5 -25t-3 -15t1 -14.5
t9.5 -10.5t21.5 -4h37h67h81h80h64h36q23 0 34 12t2 38q-5 13 -9.5 30.5t-9.5 34.5q-5 19 -11 39h-368zM336 498v228q0 11 2.5 23t10 21.5t20.5 15.5t34 6h188q31 0 51.5 -14.5t20.5 -52.5v-227h-327z" />
    <glyph glyph-name="uniE600" unicode="&#xe600;" 
d="M696 352l-48 -48l-66 66l121 119h57q77 0 122 45q54 55 54 171v26l-140 -66l-49 50l62 142h-24q-117 0 -172 -54q-4 -5 -8 -9.5t-7.5 -9.5t-7 -10.5t-6 -11.5t-4.5 -12t-4 -12.5t-3.5 -13t-2 -13.5t-1 -14.5t-0.5 -15.5v-57l-120 -121l-195 194l52 52l-189 113l-50 -50
l113 -188l52 51l194 -195l-393 -399l-32 -109l48 -45l110 27l400 394l67 -67l-49 -48l328 -327l118 119zM108 807l14 14l132 -79l-67 -67zM143 -17l-85 -21l-20 19l24 83l538 547v70q0 64 35 99q40 39 125 44l-51 -116l80 -82l115 54q-5 -84 -45 -123q-35 -36 -99 -36h-70z
M623 233l73 73l282 -281l-73 -74zM623 233z" />
    <glyph glyph-name="uniE601" unicode="&#xe601;" 
d="M158 279q-5 16 -7 28.5t-0.5 21t6 16t10.5 12.5t15 10l121 58l16 -34v-56l22 -59v-49l32 -49v-53l10 -36q-1 0 -1.5 -1t-3 -2.5t-5 -3.5t-5.5 -4.5t-5 -5t-4 -5.5t-3 -6q-3 -10 -14.5 -21.5t-25.5 -21t-28 -16.5l-22 -13l-10 -4zM714 441q2 1 6 1h19q14 0 27 -2t31 -7
t33 -12.5t30 -21.5t25 -32q11 -19 16.5 -37t5.5 -31.5t-2.5 -25t-7 -19t-8.5 -13.5t-7 -8l-3 -3q-41 -23 -86 -52l-172 274q-40 -2 -107 6q-25 3 -42 19t-22 31l-5 15l106 59zM488 579l-77 -44l17 -44q8 -22 30.5 -40t46.5 -19l96 -13l237 -359l-43 -49h-50l-156 212
l-22 -21l148 -211l-43 -45l-52 -10l-130 226l-21 -17l121 -230l-37 -32h-30l-22 24l-56 91l-23 -19l22 -58h-1q-21 -9 -37 -10t-25.5 5.5t-14.5 12.5t-9.5 16.5t-5.5 12.5q-4 6 -6.5 12t-4.5 10.5t-3 8.5t-1 6v2l27 20l46 67l-15 58v59l-21 46v52l-22 53v66l-27 45l-138 -67
l-65 152q0 3 -0.5 9t2.5 23.5t11 34.5t29 39t52 40q29 16 70.5 20t79.5 -5.5t58 -30.5zM717 479l-164 138l-30 -21l-88 121q-29 31 -112.5 32.5t-138.5 -30.5q-38 -25 -61.5 -52.5t-30.5 -49t-8 -39.5t2 -28l4 -9l64 -167q-3 -3 -11.5 -8.5t-12.5 -9t-8.5 -13.5t-4 -22.5
t5.5 -34.5t16 -50l106 -306l66 49q36 -90 63 -97q9 -1 20.5 -0.5t24 3t23.5 5t18 4.5l7 2l33 -46h64l57 47l60 15l55 49l77 19l75 72l-70 103q23 13 42.5 27.5t27.5 21.5l9 8q1 1 4 2.5t9.5 7.5t12.5 13.5t11 21t6 29.5t-3 39.5t-14 49.5q-8 19 -23.5 35.5t-34 27
t-39.5 18.5t-40 12t-34.5 6.5t-25.5 3.5z" />
    <glyph glyph-name="uniE602" unicode="&#xe602;" 
d="M502 247q64 27 104 85.5t40 129.5q0 97 -68 165t-165 68q-37 0 -72.5 -12t-64 -33.5t-50.5 -50t-33.5 -64t-11.5 -73.5q0 -71 40 -129.5t104 -85.5q-113 -29 -186 -122.5t-73 -213.5h39q0 63 25 120q23 55 65.5 98t98.5 66q57 24 119.5 24t119.5 -24q10 -4 18.5 -8.5
t17 -9.5t17 -10.5t16 -11.5t15 -12.5t14.5 -13.5q43 -43 66 -98q25 -57 25 -120h39q0 79 -33.5 149.5t-92.5 119t-133 67.5zM413 270q-79 0 -135.5 56.5t-56.5 135.5q0 39 14.5 74t41.5 63q14 13 29.5 23.5t33 18t36 11t37.5 3.5q80 0 137 -56q27 -28 41.5 -63t14.5 -74
q0 -79 -56 -136q-8 -8 -16.5 -14.5t-17.5 -12.5t-19 -10.5t-20 -8t-20.5 -6t-21.5 -3.5t-22 -1zM841 299v119h-40v-119h-119v-40h119v-118h40v118h118v40h-118z" />
    <glyph glyph-name="uniE604" unicode="&#xe604;" 
d="M906 422h-134v113q0 16 -2 31q-7 47 -28 85q-29 52 -77 86q-55 38 -124 43h-15q-7 0 -14 -0.5t-14 -1.5t-15 -2q-76 -15 -130 -72q-28 -29 -46 -67q-22 -48 -23 -101v-50v-64h-133q-7 0 -10 -3t-3 -10v-588q0 -5 1 -8t4 -4t8 -1h193h238h199v0h11h12h11h2h88q4 0 6 0.5
t4 1.5t3 2.5t1 3.5v6v586q0 8 -2.5 11t-10.5 3zM305 530q0 12 1 24t4 23q13 65 58 113q6 7 13 13t14 11.5t15 10.5t16 9l16 8q57 24 118 15q12 -2 24 -5t23 -7.5t22 -10.5q64 -33 97 -99q24 -47 25 -105v-49q0 -53 -1 -59h-221h-223q-1 16 -1 54v54zM899 177v-343
q0 -3 -1 -4.5t-5 -1.5h-65h-47h-1h-615q-7 0 -7 6v561q0 6 6 6h729q6 0 6 -6v-218zM593 289q-17 14 -37 19.5t-42 3.5q-42 -4 -69 -36q-35 -39 -28 -89q8 -57 59 -84q4 -2 3 -6t-9 -52q-2 -11 -4 -24.5t-3.5 -21.5t-4.5 -25q-4 -26 -8 -51q-1 -6 5 -6h33h50h34h4h28q3 2 3 5
q-1 9 -2.5 15t-2.5 14.5t-3 15.5q-2 13 -10 60.5t-12 73.5q1 4 2 5q4 2 8 5t7.5 6t7.5 7l6 6q33 40 24 91q-6 41 -39 68zM612 185q-10 -48 -54 -67q-4 -2 -3 -6q1 -8 8 -53q2 -8 6 -32.5t6 -37.5q1 -3 3.5 -20t4.5 -26q1 -5 -5 -5h-10h-1h-15h-29h-28h-16q-4 0 -5 1t0 4
q1 4 1.5 9t1.5 10.5t2 8.5q9 58 23 139q1 5 -4 6q-25 8 -42 29q-24 32 -18 71q2 16 9.5 29t18.5 24q30 27 69 22q36 -3 58 -32q27 -33 19 -74z" />
    <glyph glyph-name="uniE605" unicode="&#xe605;" 
d="M823 473q-10 -6 -13 -17t2 -21l113 -196q2 -4 3 -8.5t0.5 -8.5t-2 -8t-4.5 -7.5t-7 -5.5l-122 -71l-268 464q-16 28 -48 44t-64 12l-234 -28l370 214q4 2 8 3t8.5 0.5t8.5 -2t7.5 -4.5t5.5 -7l113 -196q6 -10 17 -13t21 3t13 17t-2 21l-113 196q-18 30 -51.5 39t-64.5 -8
l-439 -254q-30 -18 -39 -52t8 -64l338 -586q16 -28 48.5 -44t63.5 -12l314 37q17 2 29 10q16 9 24 25q15 30 -4 63l-42 73l122 71q30 17 39 51t-8 64l-113 196q-6 10 -17 13t-21 -3zM814 -20q2 -4 3 -6.5t0 -3.5q-1 -3 -9 -4l-315 -37q-14 -2 -31.5 6.5t-24.5 21.5l-338 586
q-3 6 -4 12l325 39q10 1 21 -2.5t20.5 -10.5t14.5 -15z" />
    <glyph glyph-name="uniE606" unicode="&#xe606;" 
d="M522 189l3 -10q0 2 -3 10zM522 189zM512 205q1 -1 10 -16zM512 205zM512 896q-138 0 -256 -69t-187 -187t-69 -256t69 -256t187 -187t256 -69t256 69t187 187t69 256t-69 256t-187 187t-256 69zM512 -74q-174 0 -303 115q-125 111 -150 275q-5 34 -5 68q0 93 36.5 178
t97.5 146t146 97.5t178 36.5t178 -36.5t146 -97.5t97.5 -146t36.5 -178q0 -174 -115 -303q-111 -125 -275 -150q-34 -5 -68 -5zM512 -74zM720 538h-83q-8 0 -14.5 -4t-10.5 -10.5t-4 -14.5q0 -12 8.5 -20.5t20.5 -8.5h16l-128 -301q-3 0 -3 7l-160 294h28q8 0 15 4
t10.5 10.5t3.5 14.5q0 3 -0.5 6.5t-2 6t-3.5 5t-4.5 4.5t-5.5 3.5t-6 2.5t-7 1h-115q-8 0 -14.5 -4t-10.5 -10.5t-4 -14.5t4 -14.5t10.5 -10.5t14.5 -4h16l179 -333q5 -12 16.5 -20.5t25.5 -8.5q9 0 17.5 4t14.5 10.5t10 14.5l153 333h13q8 0 14.5 4t10.5 10.5t4 14.5
q0 6 -2.5 11t-6 9t-9 6.5t-11.5 2.5zM720 538z" />
    <glyph glyph-name="uniE609" unicode="&#xe609;" 
d="M736 690q0 32 -21.5 55t-51.5 23h-308q-20 0 -36.5 -10t-26 -28t-9.5 -39v-612q0 -31 23.5 -54.5t54.5 -23.5h308q30 0 49 22t18 55v612zM325 691q0 6 2.5 12.5t6.5 10.5t9.5 6.5t11.5 2.5h309q12 0 20.5 -10t8.5 -23v-23l-368 -1v25zM325 645l370 -1v-474h-369zM669 45
h-309q-8 0 -15 5t-11 12.5t-4 16.5l-1 68l369 1v-70q0 -14 -8.5 -23.5t-20.5 -9.5zM522 126h-6q-7 0 -12.5 -5.5t-4.5 -13.5v-6q0 -8 5 -14t13 -6h5q5 0 9 3t6.5 7.5t2.5 9.5v5q0 8 -5.5 14t-12.5 6z" />
    <glyph glyph-name="uniE60B" unicode="&#xe60b;" 
d="M512.5 460q-58.5 0 -100 41.5t-41.5 100t41.5 100t100.5 41.5q28 0 54.5 -11.5t45.5 -30.5t30 -45t11 -55q0 -58 -41.5 -99.5t-100 -41.5zM513 712q-30 0 -55.5 -14.5t-40.5 -40.5t-15 -56q0 -46 32.5 -78.5t78.5 -32.5q30 0 55.5 15t40.5 40.5t15 55.5q0 46 -32.5 78.5
t-78.5 32.5zM719 110q-29 0 -55 11t-45 30t-30 45.5t-11 54.5q0 59 41.5 100.5t100 41.5t100 -41.5t41.5 -100t-41.5 -100t-100.5 -41.5zM719 362q-30 0 -55.5 -14.5t-40.5 -40.5t-15 -56t15 -55.5t40.5 -40t55.5 -14.5q23 0 43.5 8.5t35 23.5t23.5 35.5t9 43t-9 43
t-23.5 35.5t-35 23.5t-43.5 8.5zM304 110q-28 0 -54.5 11t-45.5 30t-30 45.5t-11 54.5q0 39 19 71.5t51.5 51.5t71 19t71 -19t51.5 -51.5t19 -71t-19 -71t-51.5 -51.5t-71.5 -19zM304 362q-22 0 -42.5 -8.5t-35.5 -23.5t-24 -35.5t-9 -43.5q0 -45 32.5 -77.5t78.5 -32.5
t78.5 32.5t32.5 77.5q0 30 -15 56t-40.5 40.5t-55.5 14.5zM608 236h-193v15q0 30 -15 55.5t-40 40.5l-14 8l94 161l13 -8q27 -17 59 -17t59 16l13 8l93 -160l-13 -8q-26 -15 -41 -40.5t-15 -55.5v-15zM445 267h134q2 19 9.5 37.5t19.5 34t28 26.5l-63 109q-61 -30 -122 0
l-63 -109q16 -11 28 -26.5t19.5 -34t9.5 -37.5zM86 -143q-4 0 -8 2q-13 8 -6 21l164 283l13 -8q25 -14 55 -14t56 14l13 8l116 -201q8 -13 -5.5 -20.5t-21.5 5.5l-101 175q-57 -25 -114 0l-148 -257q-5 -8 -13 -8zM938 -143q-9 0 -13 8l-148 257q-27 -12 -57.5 -12t-57.5 12
l-101 -175q-3 -6 -9 -7.5t-12 1.5q-13 8 -5 21l116 201l13 -8q25 -14 55 -14t56 14l13 8l163 -283q2 -3 2.5 -6t-0.5 -5.5t-3 -5t-4 -4.5q-4 -2 -8 -2z" />
    <glyph glyph-name="uniE60E" unicode="&#xe60e;" 
d="M508 -127q-48 0 -123 47q-63 40 -133 106q-64 59 -109 115q-47 59 -47 84v584l414 86l414 -86v-584q0 -5 -1.5 -10.5t-13.5 -25.5t-34 -46q-45 -57 -109 -116q-71 -66 -133 -106q-11 -7 -21.5 -13t-20 -11t-18.5 -9t-17.5 -7t-17 -4.5t-16 -2.5t-14.5 -1zM126 784v-559
q0 -14 41 -65q44 -54 106 -112q21 -19 41 -36.5t39.5 -32t37.5 -26.5t34.5 -21.5t31.5 -15.5t28 -9.5t23 -3.5q38 0 100 38.5t136 106.5q62 58 106 112q42 51 43 65v559l-383 80zM284 446l21 22l178 -178l-22 -22zM716 564l22 -22l-275 -275l-22 22z" />
    <glyph glyph-name="uniE610" unicode="&#xe610;" 
d="M662 -174h-348q-34 0 -58.5 24.5t-24.5 58.5v776q0 34 24.5 58.5t58.5 24.5h348q34 0 58.5 -24.5t24.5 -58.5v-776q0 -22 -11 -41.5t-30 -30.5t-42 -11zM314 730q-18 0 -31.5 -13t-13.5 -32v-776q0 -18 13.5 -31t31.5 -13h348q19 0 32 13t13 31v776q0 19 -13 32t-32 13
h-348zM551 673q0 -4 -2 -8t-5.5 -6t-8.5 -2h-94q-7 0 -11.5 4.5t-4.5 11.5q0 6 4.5 10.5t11.5 4.5h94q7 0 11.5 -4.5t4.5 -10.5zM488 -111q-20 0 -34 14t-14 33q0 6 1.5 11.5t4 10t5.5 8.5t7 7.5t9 6t10.5 3.5t10.5 1q20 0 34 -14t14 -33.5t-14 -33.5t-34 -14zM488 -35
q-12 0 -20 -8.5t-8 -19.5q0 -8 3.5 -14.5t10 -10.5t14.5 -4q12 0 20.5 8.5t8.5 20t-8.5 20t-20.5 8.5z" />
    <glyph glyph-name="uniE611" unicode="&#xe611;" 
d="M688 495.5q0 79.5 -56 135.5t-135 56t-134.5 -56t-55.5 -135.5t55.5 -135.5t134.5 -56t135 56t56 135.5zM340 495.5q0 65.5 46 111.5t111 46t111 -46t46 -111.5t-46 -111.5t-111 -46t-111 46t-46 111.5zM175 55v-17h16h298h331h16v17q0 55 -26.5 107t-71.5 90.5t-106 62
t-126 23.5q-16 0 -32 -2q-4 0 5 -7q9 -6 10 -11q5 1 8.5 -6.5t8.5 -7.5q78 0 147 -35t109.5 -92.5t40.5 -121.5l17 17h-331h-298l17 -17q0 66 38.5 123t105.5 91q4 2 6.5 5.5t3 8t-1.5 8.5q-3 6 -9.5 8.5t-12.5 -0.5q-76 -38 -119.5 -103t-43.5 -141z" />
    <glyph glyph-name="uniE613" unicode="&#xe613;" 
d="M306 -173q-23 0 -41 11.5t-28 31.5l-56 123q-74 17 -122.5 77t-48.5 137v356q0 90 64 154.5t155 64.5q14 0 23.5 -10t9.5 -23q0 -9 -4.5 -16.5t-12 -12t-16.5 -4.5q-63 0 -108 -45t-45 -108v-356q0 -57 38 -100.5t95 -51.5l18 -2l70 -155q3 -7 8.5 -7t8.5 7l71 156h413
q64 0 108.5 45t44.5 108v356q0 63 -44.5 108t-108.5 45h-403q-14 0 -23.5 9.5t-9.5 23t9.5 23.5t23.5 10h403q60 0 110 -29.5t79.5 -80t29.5 -109.5v-356q0 -91 -64 -155t-155 -64h-371l-53 -118q-6 -13 -16.5 -23t-24 -15t-27.5 -5zM514 374zM462 374q0 14 7 26t18.5 19
t26 7t26.5 -7t19 -19t7 -26q0 -22 -15.5 -37t-36.5 -15q-15 0 -26.5 7t-18.5 19t-7 26zM738 374zM686 374q0 14 7 26t19 19t26 7q22 0 37 -15.5t15 -36.5q0 -14 -7 -26t-19 -19t-26 -7q-22 0 -37 15t-15 37zM280 374zM228 374q0 14 7 26t18.5 19t26 7t26.5 -7t19 -19t7 -26
t-7 -26t-19 -19t-26 -7q-11 0 -20.5 4t-16.5 11t-11 16.5t-4 20.5z" />
    <glyph glyph-name="uniE615" unicode="&#xe615;" 
d="M540 474v-221v-4q0 -2 0.5 -4t0.5 -3v-4v-4v-2q1 -8 3 -13.5t5 -7.5l3 -3q1 -1 3 -2q8 -4 27 -4v-11h-133v11h9q4 0 7 1q7 1 11 3t6 5t4 8q5 9 5 34v106q0 13 -0.5 23.5t-0.5 17.5q-1 15 -3.5 22.5t-6.5 9.5t-11 2q-4 0 -9 -1t-11 -3l-5 11l83 33h13zM515.5 618
q6.5 0 12 -2.5t9.5 -6.5t6.5 -9.5t2.5 -11.5q0 -3 -0.5 -6t-2 -6t-3 -5.5t-3.5 -4.5q-4 -4 -9.5 -6.5t-12 -2.5t-11.5 2q-3 2 -5.5 3.5t-4.5 3.5q-4 4 -6.5 9.5t-2.5 12t2 12.5q1 2 3 4.5t4 4.5t4.5 3.5t4.5 3.5q6 2 12.5 2zM512 33q-75 0 -143 29q-66 28 -117 79t-79 116
q-29 69 -29 143q0 19 2 37.5t5.5 36t9 35t12.5 34.5q28 66 79 117q17 17 35.5 31.5t39 26t42.5 21.5q68 28 142.5 28t143.5 -28q32 -14 61.5 -34t55 -45t45 -54.5t33.5 -62.5q29 -68 29 -142.5t-29 -143.5q-28 -65 -79 -116t-116 -79q-34 -14 -70 -21.5t-73 -7.5zM512 747
q-94 0 -174 -46.5t-126.5 -126.5t-46.5 -174q0 -70 27.5 -134t74 -110.5t110.5 -74t135 -27.5q94 0 173.5 46.5t126 126t46.5 173.5t-46.5 174t-126 126.5t-173.5 46.5z" />
    <glyph glyph-name="uniE616" unicode="&#xe616;" 
d="M621 -174h-218q-89 0 -165.5 44.5t-120.5 120.5t-44 166v277q0 90 44 166t120.5 120.5t165.5 44.5h218q89 0 165.5 -44.5t120.5 -120.5t44 -166v-243q0 -8 -5 -14q-3 -2 -6.5 -3.5t-7.5 -1.5q-8 0 -23.5 4t-75.5 27.5t-141 63.5q-25 5 -53 -4q-80 -27 -224 -38
q-3 -10 1 -17q3 -5 10 -10t30 -10t57 -5q12 0 24 0.5t25.5 1.5t28 3t29.5 4h5q13 0 22 -8.5t9 -21.5q0 -6 -2 -12t-7 -13.5t-13 -14.5t-19 -14t-27 -13t-35.5 -11t-45.5 -8.5t-56 -4.5q-65 0 -119 40q-23 18 -62.5 32.5t-66.5 14.5q-9 0 -15 -2t-9 -5t-3 -12
q23 -16 50 -33.5t61.5 -40t64.5 -40.5t56.5 -31.5t39.5 -16.5q29 -4 43 -2.5t56 11.5q105 23 211 38h7l115 -29q9 -3 12.5 -12t-2.5 -18q-46 -65 -117.5 -102t-151.5 -37zM403 727q-59 0 -113.5 -23t-94 -62.5t-62.5 -94t-23 -113.5v-277q0 -121 86 -207t207 -86h218
q64 0 122 26.5t100 74.5l-84 21q-102 -14 -204 -37q-46 -10 -64 -11.5t-51 2.5q-28 6 -101.5 50t-115.5 72t-75 52q-2 1 -4 3t-3 4t-1 5q-5 31 11 49q2 4 5.5 6.5t7.5 5t8 4t9 2.5t10.5 1.5t11.5 0.5q15 0 32.5 -3.5t34 -9t33 -12.5t29.5 -14.5t22 -14.5q44 -32 96 -32
q70 2 109 15.5t54 28.5q-40 -5 -72.5 -6.5t-59 0.5t-46 7.5t-32.5 14.5t-20 21q-16 31 4 63q2 3 6 5.5t8 2.5q52 4 92 9t67 10.5t39 9t28 8.5q15 5 22 6.5t20.5 2t31.5 -3.5q3 0 5 -1q34 -17 64.5 -31t52 -23.5t40.5 -16.5t30 -11t21 -6v220q0 121 -86 207t-207 86h-218z
M619 533h-352q-8 0 -14 5.5t-6 13.5t6 13.5t14 5.5h352q8 0 13.5 -5.5t5.5 -13.5t-5.5 -13.5t-13.5 -5.5zM619 389h-352q-8 0 -14 5.5t-6 13.5t6 13.5t14 5.5h352q8 0 13.5 -5.5t5.5 -13.5t-5.5 -13.5t-13.5 -5.5z" />
    <glyph glyph-name="uniE619" unicode="&#xe619;" 
d="M511 666q69 0 121.5 -45t62.5 -112q22 6 45 6q62 0 104 -44q44 -42 44 -104q0 -29 -10.5 -55t-29.5 -47l35 -35q12 -12 21 -25t15 -28q12 -30 12 -62v-44q0 -18 -11 -33q-12 -17 -31 -19h-3h-34v-13q0 -11 -8 -18.5t-19 -7.5h-2h-312h-312h-1q-11 0 -19 7.5t-8 18.5v13
h-34h-3q-20 2 -32 19q-10 14 -10 33v44q0 35 12 62q4 9 9 18t9.5 15t12.5 15t12 13l15 14l12 13q-40 44 -40 102q0 61 44 104q44 44 105 44q23 0 44 -6q10 67 63 112t121 45zM511 34h84v123q0 7 5 12t11 5q7 0 12 -5t5 -12v-72h70l2 7v58q0 16 -3 30.5t-9 27.5t-12 23
t-17 22t-18.5 19.5t-21.5 21t-22 20.5q-9 -5 -19.5 -9t-21 -6.5t-22 -4t-23.5 -1.5q-23 0 -44.5 5.5t-41.5 15.5q-7 -7 -24.5 -23.5t-25 -24.5t-20 -23.5t-18 -27.5t-10 -29.5t-4.5 -35.5v-58q0 -2 1 -5v-2h71v72q0 5 2 8.5t5.5 6t8 2.5t8.5 -2.5t6 -6t2 -8.5v-123h84z
M511 348q36 0 66 17.5t48 48t18 66.5q0 54 -38.5 93t-93.5 39q-27 0 -51.5 -10.5t-42 -28t-28 -42t-10.5 -51.5q0 -55 39 -93.5t93 -38.5zM226 34h79q-14 4 -25 19q-5 8 -8.5 18t-3.5 21v58q0 12 1.5 23.5t4 22.5t6.5 22q-35 2 -61 15q-4 -5 -17.5 -17t-20 -19t-15 -18
t-12.5 -22q-3 -6 -4.5 -13t-2.5 -14t-1 -15v-42h47v49q0 4 2.5 7.5t6 6t7.5 2.5q7 0 12 -5t5 -11v-88zM327 450q-3 2 -7 3.5t-8 3.5q-7 2 -14 3t-15 1q-40 0 -66 -28q-28 -27 -28 -66q0 -13 3.5 -25.5t9.5 -22.5t15 -19q26 -27 66 -27q9 0 16 1t14 3q9 11 20 22.5t26 26
t22 21.5q-44 44 -54 103zM797 34v88q0 3 1 6t3 5t5 3.5t7 1.5q7 0 11.5 -5t4.5 -11v-49h48v42q0 22 -8 42q-8 18 -24 35l-41 41q-26 -13 -61 -15q11 -32 11 -68v-58q0 -21 -12 -39q-10 -15 -24 -19h79v0zM695 450q-10 -61 -53 -103l17 -17l17 -18q8 -7 17 -16.5t16 -18.5
q1 0 3.5 -0.5t5 -1.5t3.5 -1q5 0 9.5 -0.5t9.5 -0.5q39 0 66 27q28 27 28 67q0 19 -7.5 36t-20.5 30q-26 28 -66 28q-16 0 -29 -4q-4 -1 -6.5 -2.5t-9.5 -4.5z" />
    <glyph glyph-name="uniE61A" unicode="&#xe61a;" 
d="M251 -63q-51 0 -87.5 36.5t-36.5 87.5v264q0 28 12 53.5t33.5 43t48.5 24.5l-1 135q0 66 38.5 122.5t99 89.5t127.5 36q124 7 203.5 -55.5t79.5 -165.5q0 -14 -9.5 -23.5t-22.5 -9.5q-9 0 -16.5 4.5t-12 12t-4.5 16.5q0 50 -28 87t-78 55t-112 13q-24 -2 -48.5 -9
t-47 -19t-41.5 -28t-33 -35.5t-21.5 -42.5t-7.5 -47l-2 -132h492q51 0 87 -37q17 -17 26.5 -40t9.5 -48v-264q0 -20 -6.5 -39t-17.5 -34t-26.5 -26.5t-34 -18t-38.5 -6.5h-525zM251 384q-24 0 -41 -17t-17 -42v-264q0 -24 17 -41t41 -17h525q24 0 41 17t17 41v264
q0 25 -17 42t-41 17h-525zM513.5 135q-13.5 0 -23 9.5t-9.5 23.5v122q0 9 4.5 16.5t12 12t16.5 4.5q6 0 12 -2.5t10.5 -7t7 -10.5t2.5 -13v-122q0 -14 -9.5 -23.5t-23 -9.5z" />
    <glyph glyph-name="uniE61E" unicode="&#xe61e;" 
d="M323 721q10 -8 21 -18q10 -9 18 -21q2 -3 3.5 -5.5t4 -5.5t4.5 -7l12 -18l6 -10q3 -5 6 -11l6 -9h215l6 8q4 5 7 10.5t6 10.5q5 9 10 16q6 8 10 14q4 7 8.5 13t9.5 11q2 3 5.5 6.5t7.5 6.5t9 6q11 7 19 18q7 11 9 22q3 14 -3 26q-7 14 -24 21q-13 5 -24 3q-8 -1 -16 -4
q-7 -3 -13 -6q-1 0 -2 -0.5t-2 -0.5h-5q-4 0 -6 1q-4 2 -7 5l-11 10q-9 8 -21 12q-6 2 -12.5 3.5t-12 2t-10.5 -0.5t-9 -3q-5 -2 -10 -4.5t-9.5 -6t-9.5 -8.5q-3 -2 -6 -6l-1 1l-7 4q-2 2 -4 5l-2 2q-12 12 -33 15q-22 4 -41 -8q-9 -6 -15.5 -11t-10.5 -9q-2 -3 -10 -4
l-2 -1l-4 1q-12 4 -19 6q-11 3 -21 4q-16 2 -29 -8q-24 -18 -15 -46q2 -6 5.5 -12t8 -11t10.5 -9zM339 769q6 -1 14 -3l18 -6q7 -2 14.5 -2.5t12.5 1.5q19 4 29 15q5 6 19 14q6 4 14 3t11 -4q5 -6 11 -10q2 -2 4.5 -3.5t4.5 -3.5q6 -4 13 -8l4 -2h5q2 0 4.5 0.5t5 2t5.5 2.5
q7 5 17 15q5 4 9 7t8 5q4 1 17 -4q5 -1 8 -4l11 -9q7 -7 15 -11q22 -12 48 -1q6 2 12 5l8 2q2 0 5 -1l2 -1q1 -1 0 -3q0 -3 -3 -7l-7 -7q-21 -13 -32 -27q-10 -12 -20 -26q-4 -7 -10 -15.5t-11 -18.5q-2 -2 -3.5 -4.5t-2.5 -5.5h-173q-4 7 -7 13q-6 9 -13 19t-11 17
q-11 16 -25 28q-12 12 -25 21q-6 5 -9 15zM339 769zM858 292q-4 25 -10.5 47t-16.5 41q-9 19 -20.5 35.5t-23.5 31.5q-25 27 -49 48q-5 4 -10 9l-10 8q-5 5 -10 9l-8 8q-5 4 -9 8q-10 9 -18.5 18t-15.5 17q-16 18 -27 31l-5 8h-231l-5 -7q-4 -5 -8.5 -10.5t-9.5 -11
t-10 -12.5q-13 -15 -32 -33q-19 -19 -43 -40q-10 -9 -19.5 -18.5t-18 -19.5t-17.5 -20q-25 -33 -42 -73q-17 -39 -23 -84q-3 -15 -3 -30.5t1 -31.5t4 -32q2 -11 5 -22.5t7.5 -22.5t9.5 -22t11 -22q25 -45 67.5 -81t103 -58.5t138.5 -22.5q75 0 135 20q30 9 56 22t48 30
q44 33 71 78q26 45 35 95q10 61 3 110zM817 189q-7 -43 -31 -82q-11 -19 -26.5 -36t-34.5 -31q-38 -29 -92 -47q-18 -5 -37.5 -9t-41 -6t-44.5 -2q-35 0 -66.5 5t-58.5 15q-54 20 -91 51q-19 16 -33.5 33.5t-25.5 37.5q-22 39 -29 77q-8 43 -2 82q3 19 8 38t12.5 36t17 33
t20.5 31q8 10 16 19t16.5 17.5t17.5 16.5q12 10 23 20.5t21 20.5l19 19q9 9 15 17q13 14 23 28h192q6 -7 11.5 -13.5t12.5 -13.5q7 -8 16 -17.5t19 -19.5q7 -7 15 -14t16.5 -14.5t17.5 -14.5q22 -19 45 -45q22 -25 39 -58q16 -33 23 -77q3 -21 2.5 -45.5t-5.5 -51.5z
M817 189zM599 205q7 0 11.5 1t7.5 4q6 7 6 15q0 4 -1.5 7.5t-4.5 6.5q-7 6 -20 6h-61v18q8 7 15.5 14t13.5 15l23 23q6 5 10 9.5t7 6.5q21 19 9 33q-6 8 -17 8q-5 0 -9.5 -1.5t-8.5 -5.5q-3 -2 -7 -5.5t-9 -8.5q-13 -11 -23 -20q-7 -6 -14 -13t-15 -14l-45 45q-9 9 -13 14
q-2 1 -3.5 2.5t-3.5 2.5l-4 2l-4 2q-2 1 -5 2q-12 4 -20 -5q-8 -11 -4 -20.5t8 -15.5l14 -13q3 -3 6 -6.5t5 -5.5t6 -6.5t6 -6.5q14 -15 31 -32l-1 -19h-64q-8 0 -15 -7q-2 -2 -3 -4.5t-2 -4.5t-1 -5q0 -7 6 -13t15 -6h64v-32h-64q-4 0 -7.5 -1.5t-7.5 -4.5q-6 -5 -6 -13
q-1 -8 6 -13q2 -2 4 -3t5 -1.5t6 -0.5h64v-19q0 -3 0.5 -6t1.5 -5t2.5 -4t3.5 -3q8 -5 19 -5q6 -1 10.5 1t8 6t5 8t1.5 8v19h66q9 0 15.5 4t5.5 14q0 19 -27 19h-60l1 32zM599 205z" />
    <glyph glyph-name="uniE61F" unicode="&#xe61f;" 
d="M960 -41q0 -29 -14.5 -53.5t-39 -39t-53.5 -14.5h-682q-44 0 -75.5 31.5t-31.5 75.5v639q0 35 25 60t61 25h344l88 63q4 2 8 1.5t8 -2t6.5 -5t4.5 -7.5l18 -50h162q36 0 60.5 -25t24.5 -60v-64h1q35 0 60 -25t25 -60v-490zM150 641q-11 0 -21.5 -11.5t-16 -26t-5.5 -26.5
q0 -18 12.5 -30.5t30.5 -12.5h31h-22h4h1v1l255 106h-269zM599 637l-23 62v-21l-76 -37l-235 -107h385zM832 598q0 18 -12.5 30.5t-30.5 12.5h-146l52 -107h137v64zM875 492h-725q-23 0 -43 11v-544q0 -18 8.5 -32.5t23.5 -23t32 -8.5h682q27 0 45.5 18.5t18.5 45.5v149h-85
q-35 0 -60 25t-25 60q0 17 6.5 33t18 27.5t27.5 18t33 6.5h85v171q0 18 -12.5 30.5t-29.5 12.5zM917 150v86h-85q-18 0 -30.5 -12.5t-12.5 -30.5t12.5 -30.5t30.5 -12.5h85zM832 214h42v-42h-42v42z" />
    <glyph glyph-name="uniE620" unicode="&#xe620;" 
d="M512 812q-212 0 -362 -150t-150 -362q0 -104 40.5 -199t109 -163.5t163.5 -109t199 -40.5t199 40.5t163.5 109t109 163.5t40.5 199t-40.5 199t-109 163.5t-163.5 109t-199 40.5v0zM512 -148q-91 0 -174 35.5t-143 95.5t-95.5 143t-35.5 174t35.5 174t95.5 143t143 95.5
t174 35.5t174 -35.5t143 -95.5t95.5 -143t35.5 -174t-35.5 -174t-95.5 -143t-143 -95.5t-174 -35.5v0zM711 174q14 0 24 -8t10 -20q0 -10 -10.5 -18t-23.5 -8h-170v-96q0 -7 -4.5 -13t-13 -9.5t-18.5 -3.5q-15 0 -25 7.5t-10 18.5v96h-170q-14 0 -24 8t-10 20q0 11 10 18.5
t24 7.5h170v83h-170q-14 0 -24 7.5t-10 20.5q0 10 10 17.5t24 7.5h144l-148 219q-8 9 -3 19.5t19 16.5q12 4 25.5 1t20.5 -12l149 -220l148 221q7 9 21 12.5t26 -2.5q13 -5 17.5 -15.5t-2.5 -19.5v1l-148 -221h142q14 0 24 -7.5t10 -19t-10 -19t-24 -7.5h-170v-83h170v0z
" />
    <glyph glyph-name="uniE622" unicode="&#xe622;" 
d="M728.5 481q-18.5 0 -32 -13.5t-13.5 -31.5v-7q-3 -3 -6.5 -5.5t-6 -4.5t-7 -3t-6.5 -1.5t-7 -1t-7 -0.5h-8h-8q-17 0 -33.5 16.5t-26.5 35.5t-17 39q21 16 21 42q0 7 -1.5 13.5t-4.5 12t-6.5 10.5t-8.5 8.5t-10.5 6.5t-12 4.5t-13.5 1.5q-15 0 -28 -7.5t-20.5 -20.5
t-7.5 -29q0 -26 22 -45q-4 -18 -11.5 -36t-23 -36t-32.5 -18q-2 0 -14 -0.5t-17.5 0t-16 4.5t-20.5 12v7q0 12 -6 22.5t-16.5 16.5t-22.5 6q-19 0 -32 -13.5t-13 -31.5q0 -31 31 -43l41 -178l2 -9q7 -19 22 -30t35 -11h257q41 0 56 41l45 187q14 5 23 16.5t9 26.5
q-2 20 -15.5 33.5t-32 13.5zM729 413h-3l-43 -180l-2 -7l-2 -7q-4 -14 -13.5 -22.5t-22.5 -8.5h-257q-9 0 -16.5 3.5t-12.5 10.5t-7 17l-3 9l-43 185h-4q-10 0 -16.5 7t-6.5 16q0 8 7.5 15t15.5 7q10 0 16.5 -6.5t6.5 -15.5q0 -5 -5 -14q8 -9 17.5 -15.5t16.5 -9.5t17 -4.5
t14.5 -2t15 0t12.5 0.5q25 0 46.5 22t31 45.5t12.5 42.5v16q-4 1 -7 3t-5.5 4.5t-4.5 5t-3 6t-2 6.5t-1 7q0 13 10 23t24 10t24 -10t10 -23q0 -12 -6 -20t-17 -12v-13h3q1 -8 5 -18t10 -23.5t14.5 -25.5t18.5 -22.5t23.5 -17t27.5 -6.5q55 0 83 34q-2 3 -2 11q0 6 3.5 11.5
t8.5 8t11 2.5q2 0 4.5 -0.5t4.5 -1t4 -2.5l2 -2q2 -2 3.5 -4t2.5 -4v-4q1 -2 1 -4q0 -9 -6.5 -16t-15.5 -7z" />
    <glyph glyph-name="uniE623" unicode="&#xe623;" 
d="M608 492v-32h96l-240 -240l-96 96l-16 -16l-16 -16l-80 -80l32 -32l80 80l96 -96l16 16l16 16l240 240v-96h32v128v32h-32h-128zM512 812q-139 0 -257 -68.5t-186.5 -186.5t-68.5 -257t68.5 -257t186.5 -186.5t257 -68.5t257 68.5t186.5 186.5t68.5 257t-68.5 257
t-186.5 186.5t-257 68.5zM512 -180q-98 0 -186.5 38t-153 102.5t-102.5 153t-38 186.5t38 186.5t102.5 153t153 102.5t186.5 38t186.5 -38t153 -102.5t102.5 -153t38 -186.5t-38 -186.5t-102.5 -153t-153 -102.5t-186.5 -38z" />
    <glyph glyph-name="uniE625" unicode="&#xe625;" 
d="M467 268q28 0 56 7q77 -14 139 -65q1 -1 3 -2t4 -1.5t4 -0.5q9 0 14 6t4.5 14t-6.5 12q-24 20 -51 35t-56 25q48 29 76.5 78.5t28.5 107.5t-29 108t-78.5 79t-108.5 29q-25 0 -49.5 -6t-45.5 -16.5t-40 -25.5t-33.5 -33.5t-25 -40t-16.5 -45.5t-6 -49q0 -58 28.5 -107.5
t76.5 -78.5q-88 -30 -150 -102q-39 -46 -60 -103.5t-21 -118.5q0 -7 5.5 -12.5t13 -5.5t13 5.5t5.5 12.5q0 113 72 198q71 83 178 103q27 -7 55 -7zM288 484q0 74 52.5 126.5t126.5 52.5t126.5 -52.5t52.5 -126.5q0 -18 -3 -34.5t-9 -32t-15 -29t-20 -25.5t-24 -22
t-27.5 -17.5t-30.5 -11.5l-1 -1l-8 -2q-4 -1 -8 -1l-8 -2h-8q-4 -1 -8.5 -1.5t-8.5 -0.5q-25 0 -49 7l-1 1q-37 10 -66.5 35t-46 61t-16.5 76zM904 76v0v1h1v1v0q0 1 1 1v1v0v1q1 0 1 1v1v1v1v0q1 2 0 4v1v1v1v0v1l-1 1v0v1l-1 1v1l-1 1v0v1h-1q0 1 -1 1l-158 158
q-2 3 -5.5 4t-7 1t-7 -1t-6.5 -4q-5 -5 -5 -13t5 -13l127 -127h-429q-8 0 -13.5 -5.5t-5.5 -12.5q0 -5 2.5 -9.5t7 -7t9.5 -2.5h429l-127 -126q-2 -3 -3.5 -6.5t-1.5 -6.5t1.5 -6.5t3.5 -6.5q6 -6 13.5 -6t12.5 6l158 158z" />
    <glyph glyph-name="uniE626" unicode="&#xe626;" 
d="M215 181h-127q-6 0 -10.5 3t-7.5 7.5t-3 9.5v330q0 2 0.5 4t1.5 4t2.5 4t3.5 3.5t4 2.5t4 1.5t5 0.5h127q8 0 14 -6t6 -14v-330q0 -2 -1 -5t-2 -5t-3 -4t-4 -3t-5 -2t-5 -1zM108 222h86v288h-86v-288zM581 3q-5 0 -9 3l-367 177q-6 3 -9 8t-3 10v330q0 2 0.5 4t1.5 4
t2 3.5t2.5 3t3.5 2.5l368 217q10 6 20 0q5 -2 7.5 -7t2.5 -10v-724q-1 -11 -9 -17q-5 -4 -11 -4zM234 214l327 -158v656l-327 -193v-305zM699 166q-15 0 -19 14q-2 4 -1.5 8t2 7.5t4.5 6t7 3.5q43 15 70 56t27 91.5t-27 92t-70 55.5q-8 3 -11.5 10.5t-1 15.5t10 11.5
t15.5 1.5q56 -20 90 -71t34 -115t-34 -115.5t-90 -70.5q-1 0 -3 -0.5t-3 -0.5zM763 92q-16 0 -20 16q-1 8 3 15t12 9q70 17 114.5 79t44.5 142q0 52 -20 98.5t-56.5 79t-82.5 42.5q-8 2 -12 9.5t-2.5 15.5t9 12.5t15.5 2.5q82 -20 136 -93t54 -167.5t-54 -167.5
q-26 -35 -61 -59t-75 -33q-3 -1 -5 -1zM896 186z" />
    <glyph glyph-name="uniE62D" unicode="&#xe62d;" 
d="M547 -112q-69 0 -133.5 22t-120.5 65.5t-95 104.5q-4 7 -2 16t9.5 13.5t16 2.5t13.5 -9q40 -62 99.5 -104t131.5 -58q148 -34 277 48q63 39 104.5 98.5t58.5 131.5q33 149 -49 278q-39 62 -98.5 104t-131.5 58t-143.5 4t-134.5 -52q-81 -51 -126.5 -134.5t-44.5 -179.5
q0 -4 -1.5 -8.5t-4.5 -7t-7 -4.5t-9 -2q-6 0 -11 3t-7.5 8t-3.5 11q0 71 22.5 137t66 121t103.5 93q46 29 98 45t105 18.5t108 -9.5q53 -12 101 -37t87.5 -62t68.5 -83q60 -94 64 -204t-46.5 -207t-144.5 -157q-101 -64 -220 -64zM689 94q-7 0 -12.5 2.5t-10.5 7.5l-154 154
q-9 10 -10 23v268q0 13 9.5 22.5t22.5 9.5q8 0 15.5 -4.5t11.5 -11.5t4 -16v-255l146 -146q9 -9 9 -22t-9 -22.5t-22 -9.5zM156 275h-3q-5 1 -9 3.5t-6 6.5l-73 116q-5 7 -3 16t9.5 13.5t16.5 2.5t13 -9l60 -94l76 64q7 6 16 5.5t15 -7.5t5 -16t-8 -15l-95 -81q-6 -5 -14 -5
z" />
    <glyph glyph-name="uniE637" unicode="&#xe637;" 
d="M859 694q-46 46 -108.5 63t-125 2.5t-110.5 -58.5q-49 44 -111.5 58.5t-124.5 -2.5t-109 -63q-73 -73 -73 -175.5t73 -175.5q276 -272 289 -285q23 -23 56 -23t56 23l288 285q74 73 74 175.5t-74 175.5zM822 380l-289 -286q-3 -3 -6.5 -4.5t-7.5 -2t-8 0t-8 2t-7 4.5
l-288 286q-58 58 -58 139t58 138q55 55 134 57t137 -51l36 -32l35 32q59 53 137.5 51t134.5 -57q28 -28 43 -64.5t15 -73.5t-15 -74t-43 -65zM339 635q-46 0 -78.5 -32.5t-32.5 -78.5q0 -3 1.5 -6t4.5 -5t7 -2q5 0 9 4t4 9q0 36 24.5 60.5t60.5 24.5q5 0 9 4t4 9.5t-4 9
t-9 3.5z" />
    <glyph glyph-name="uniE638" unicode="&#xe638;" 
d="M823 430h-78v98q0 47 -19 90.5t-50.5 75t-75 50.5t-90.5 19q-98 0 -166.5 -69t-68.5 -166v-98h-79q-16 0 -29.5 -8t-21 -21.5t-7.5 -29.5v-470q0 -24 17 -41.5t41 -17.5h627q16 0 29.5 8t21.5 21.5t8 29.5v470q0 24 -17.5 41.5t-41.5 17.5zM314 528q0 81 57.5 138.5
t138.5 57.5t138 -57.5t57 -138.5v-98h-391v98zM843 -99q0 -8 -6 -14t-14 -6h-627q-8 0 -13.5 6t-5.5 14v470q0 8 5.5 14t13.5 6h627q8 0 14 -6t6 -14v-470zM509.5 234q-24.5 0 -41.5 -17t-17 -42q0 -26 19 -43v-55q0 -16 11.5 -27.5t28 -11.5t28 11.5t11.5 27.5v55
q19 17 19 43q0 25 -17 42t-41.5 17z" />
    <glyph glyph-name="uniE643" unicode="&#xe643;" 
d="M959 593q-3 103 -78 173.5t-178 66.5q-104 -3 -175 -82l-18 -19l-10 11q-35 42 -84.5 64.5t-103.5 22.5q-67 0 -124 -33t-90.5 -90.5t-33.5 -125.5q0 -105 76 -179l2 -2l8 -8q5 -5 10.5 -11t14 -15.5t16.5 -17.5l-14 -15q-20 -20 -19.5 -47.5t20.5 -47.5t48 -19q1 0 5 1
h3q-1 -31 21 -52q24 -24 59 -19q-1 -15 3.5 -29t15.5 -25q23 -23 58 -18q-1 -32 21 -54q21 -21 50 -21q20 0 38 14l3 -3q27 -28 62 -28q13 0 25 4.5t21 13.5q26 25 17 67q2 0 6.5 -1.5t7.5 -1.5q28 0 48 19q27 26 19 67q1 0 4 -0.5t5.5 -1t4.5 -0.5q13 0 25.5 4.5t22.5 13.5
q26 26 17 69q2 0 4.5 -1t5 -1.5t4.5 -0.5q29 0 50 19q21 21 22 51q0 36 -25 63l-1 1l31 31q26 25 44.5 55.5t28 66t7.5 71.5zM253 269v0l-2 -3q-5 -4 -10.5 -6.5t-11.5 -2.5q-14 0 -23 10q-10 9 -10 22.5t9 22.5l87 90q9 9 23 9q3 0 6 -0.5t6 -1.5t5.5 -3t5.5 -4
q9 -10 9.5 -23t-8.5 -23zM329 192q-10 -10 -24 -9.5t-24.5 11t-11.5 24.5t8 24l89 91l3 2q9 10 22 10q15 0 26 -11t11.5 -25t-8.5 -24zM409 123v0l-2 -3q-10 -10 -24.5 -10t-24.5 11q-7 6 -9.5 15t-0.5 18t9 16l93 95q5 5 11 7.5t13 2.5q7 1 13.5 -2t11.5 -8t8 -11.5
t3 -13.5q0 -13 -10 -23zM487 49q-4 -5 -10 -7.5t-12 -2.5q-16 0 -27 11q-10 11 -11 25t8 24l89 91l1 1l2 2q4 5 10 7.5t13 2.5q15 0 26.5 -11t11.5 -27q0 -6 -2.5 -12t-6.5 -11zM589 27q-9 -10 -24 -10q-22 0 -39 19l-2 2l56 57q1 0 1 -1l3 -3q14 -15 15.5 -34t-10.5 -30z
M823 281q-13 -12 -32 -10t-33 17l-105 106q-11 11 -22 0t0 -22l107 -109q14 -15 15.5 -34t-10.5 -31q-11 -11 -28.5 -9.5t-31.5 13.5l-1 1q-1 0 -1 1l-104 105q-11 12 -22 0.5t0 -22.5l107 -109l1 -1q12 -14 12.5 -32t-11.5 -29q-8 -7 -19 -9t-23 2t-21 14h-1l-1 1l4 3
q9 9 13.5 21t4.5 26q0 9 -2.5 18t-7 17t-11.5 14q-21 21 -49 21h-1q-1 0 -4 -1t-4 -1v2l1 2q0 14 -5.5 26t-14.5 22q-20 19 -48 19q-2 0 -4 -0.5t-4.5 -1t-3.5 -0.5q1 30 -20 50q-21 21 -49 21q-2 0 -4.5 -1t-3.5 -1q1 14 -3.5 27t-15.5 24q-9 9 -21.5 14t-24.5 5t-24.5 -5
t-21.5 -15l-57 -58l-49 53q-65 64 -65 154q0 57 28 106t77 77.5t106 28.5q31 0 60 -8.5t55 -25.5t46 -41l11 -12q-7 -6 -17.5 -16.5t-31.5 -32.5t-30 -31q-27 -31 -40.5 -60.5t-9 -60.5t31.5 -57q17 -17 41 -21.5t49.5 3t51 22t49.5 35.5q14 11 28 25.5t22 23.5l8 9
l180 -195q16 -17 15 -39q0 -6 -1.5 -11t-4 -9t-5.5 -8zM849 430l-30 -30l-18 18l-161 179q-35 -44 -84 -85q-44 -38 -82.5 -47.5t-63.5 14.5q-10 10 -13 23t0 27.5t10 28.5t17 28q12 15 44.5 49.5t58.5 61.5l27 27q60 67 148 70h7q55 0 102 -27t75.5 -73.5t30.5 -101.5
q1 -18 -2 -36.5t-8.5 -35.5t-13.5 -33t-19.5 -30.5t-24.5 -26.5z" />
    <glyph glyph-name="uniE649" unicode="&#xe649;" 
d="M766 175q-5 -6 -3.5 -13.5t8 -12t14 -3t11.5 7.5q66 94 95 205q24 89 23 183q-1 48 -7.5 95t-11 63t-7.5 25q-5 12 -17 13q-57 1 -108.5 11t-86 23.5t-65.5 32.5t-47 32.5t-29 27.5l-5 5q-2 2 -8 4.5t-13 3.5q-16 1 -31 -12l-1 -1q-36 -40 -85 -67t-98.5 -39t-84 -16.5
t-67.5 -4.5q-14 0 -17 -13q-10 -34 -16 -88q-12 -108 5 -213q24 -147 103 -269q98 -152 275 -254l8 -3h2h2q5 0 9 3q43 24 82 52t73 58q70 55 119 62q5 1 9 4t6 7.5t1 9.5q-1 7 -7 11.5t-14 3.5q-16 -2 -36.5 -10t-36 -16.5t-32 -19.5l-22.5 -15l-10 -8l-1 -1
q-63 -56 -141 -102q-164 97 -255 237q-74 115 -97 255q-8 45 -9.5 90.5t1.5 82t6.5 59t7.5 40.5q129 4 230 54q70 34 116 84q4 3 5 1q20 -21 48.5 -43t67.5 -42q102 -50 233 -54q3 -11 5.5 -24.5t6 -34.5t6 -47t2.5 -53q1 -90 -21 -173q-28 -105 -90 -194zM277 618
q8 2 11.5 8.5t1 14t-9 11t-14.5 1.5q-9 -3 -21.5 -5.5t-18 -3t-8.5 -0.5q-13 -2 -16 -15q-14 -77 2 -179q2 -7 7 -11.5t12 -4.5q1 0 3 1q5 1 8.5 4t5.5 7.5t1 9.5q-13 79 -4 153q24 3 40 9z" />
    <glyph glyph-name="uniE65B" unicode="&#xe65b;" 
d="M936 574q13 0 21.5 -9t8.5 -22v-500q0 -12 -8 -21q-3 -2 -5.5 -4t-5 -3t-5.5 -1.5t-6 -0.5h-850q-12 0 -21 9t-9 21v500q0 13 9 22t21 9h850zM936 601h-850q-24 0 -41 -17t-17 -41v-500q0 -24 17 -41t41 -17h850q24 0 41 17t17 41v500q0 12 -4.5 22.5t-12.5 18.5
t-18.5 12.5t-22.5 4.5zM366 436h24v-20q0 -10 0.5 -18.5t0.5 -15.5h108v-22h-106q0 -12 1 -25q1 -23 2.5 -42t4.5 -33.5t7 -25.5q27 35 50 92l23 -10q-8 -19 -17.5 -37t-21 -36t-25.5 -36q4 -9 9 -16.5t10.5 -13.5t12.5 -10q8 -6 13.5 -5t8.5 10q6 24 8 49q6 -4 23 -9
q-3 -28 -8 -47q-8 -31 -29 -30q-9 0 -17.5 3.5t-16.5 10.5q-10 9 -18 18.5t-13 20.5q-30 -31 -57 -49q-2 1 -8 9l-5 5l-4 4q37 24 64 55v3l-1 1q-5 15 -9 32.5t-6.5 38.5t-3.5 46q-2 14 -2 27h-118v-48h90q0 -10 -1 -28q0 -41 -3 -67q-1 -47 -45 -46q-5 -1 -13 -1h-18
q-1 6 -2 10.5t-1.5 8.5t-1.5 6q9 -1 34 -1q23 -1 23 23q1 17 2 48q2 17 2 24h-66q3 -106 -38 -158q-2 1 -4.5 3t-6.5 6q-3 4 -6 5.5t-4 2.5q12 15 19 30.5t9 29.5q7 27 7 97v77h141q-1 18 -1 32v22zM413 418l13 15q12 -6 33 -21q11 -6 16 -10l-16 -18q-2 3 -9 7l-10 8
q-5 4 -9.5 7.5t-9 6t-8.5 5.5zM826 160q0 -2 -1.5 -4t-3.5 -5q-5 -11 -7 -16q-49 14 -83.5 28t-54.5 29q-19 -15 -53.5 -30t-84.5 -29q-1 2 -2.5 4.5t-4.5 6.5l-6 12q95 23 132 52q-24 26 -54 81l22 13q12 -26 24.5 -45t26.5 -32q4 3 7 6.5t6 8t6.5 9t6.5 9t6 10.5l6 10
q3 6 6 12.5t6 12.5l23 -9q-24 -55 -53 -86q21 -16 54 -28t76 -20zM529 391h143q0 1 -1.5 4t-3.5 6.5t-5 8.5q-8 11 -10 18l22 10q16 -22 24 -38l-18 -9h145v-24h-296v24zM628 357l17 -19q-12 -11 -25 -21t-25.5 -19.5t-24.5 -18t-25 -15.5q-1 1 -3 6q-4 5 -7 8.5t-5 5.5
q54 33 98 73zM723 356q26 -17 51 -33.5t49 -33.5l-17 -22q-45 35 -99 71z" />
    <glyph glyph-name="uniE660" unicode="&#xe660;" 
d="M836 -39.5q-1 4.5 -2.5 17.5t-3.5 20q-10 47 -31.5 87t-53 72t-73.5 57q-8 4 -8.5 7t6.5 10q78 69 81 169q0 56 -22 105.5t-59 82.5t-86.5 49t-102.5 9q-151 -21 -196 -166q-45 -142 68 -249q7 -6 7 -9.5t-8 -7.5q-135 -79 -162 -233q-4 -22 -1 -25.5t24 -3.5h3
q6 -1 9 0.5t4.5 4.5t2.5 9q22 154 166 223q6 3 11 3t10 -3q93 -38 186 0q11 5 21 0q134 -65 163 -206q5 -24 9.5 -28t29.5 -3h1q5 0 6.5 2t0.5 6.5zM512 213.5q-53 -0.5 -98 26t-71.5 71.5t-26.5 98q0 23 5 45t15 41t23 36t30 30.5t36.5 23.5t41.5 15t45 5q80 0 137.5 -57
t58.5 -138q0 -53 -26.5 -98.5t-71.5 -71.5t-98 -26.5z" />
    <glyph glyph-name="uniE664" unicode="&#xe664;" 
d="M957 600h-890l1 -1v-599h889v599v1zM498 140l144 145l261 -253h-780l231 253zM498 186l-353 381h734zM331 308l-231 -253v512zM925 56l-260 251l260 260v-511zM925 56z" />
    <glyph glyph-name="uniE67E" unicode="&#xe67e;" 
d="M509 870q-99 0 -189 -38.5t-155 -103.5t-103.5 -155t-38.5 -189t38.5 -189t103.5 -155t155 -103.5t189 -38.5t189 38.5t155 103.5t103.5 155t38.5 189q0 66 -17.5 129t-49 116t-76.5 98t-98 76.5t-116 49t-129 17.5zM832 61q-63 -63 -145 -98q-28 -12 -57.5 -20
t-59.5 -12t-61 -4q-93 0 -178 36q-82 35 -145 98t-98 145q-12 28 -20 57.5t-12 59.5t-4 61q0 93 36 178q35 82 98 145q32 31 68 55.5t77 42.5q85 35 178 35t178 -35q16 -7 31.5 -15t30.5 -17.5t29 -20t27.5 -22t26.5 -23.5q63 -63 98 -145q35 -85 35 -178t-35 -178
q-18 -41 -42.5 -77t-55.5 -68zM485 166h48v-54h-48v54zM538 655q-161 8 -196 -142l43 -14q27 124 145 121q105 -8 116 -102q8 -62 -83 -121q-37 -25 -55 -56t-18 -67v-27h38v24q-3 62 59 99q110 62 102 145q-11 132 -151 140z" />
    <glyph glyph-name="uniE68E" unicode="&#xe68e;" 
d="M332 -26q86 -38 180 -38q122 0 225 60t163 163t60 225t-60 225t-163 163t-225 60t-225 -60t-163 -163t-60 -225q0 -148 88 -267q9 -12 22 -2.5t4 22.5q-40 53 -61 116t-21 131q0 172 122 294t294 122t294 -122t122 -294t-122 -294t-294 -122q-88 0 -167 35
q-6 3 -12.5 0.5t-9 -8.5t0 -12.5t8.5 -8.5zM512 192q13 0 22.5 9.5t9.5 22.5t-9.5 22.5t-22.5 9.5t-22.5 -9.5t-9.5 -22.5t9.5 -22.5t22.5 -9.5zM496 656v-352q0 -7 4.5 -11.5t11.5 -4.5t11.5 4.5t4.5 11.5v352q0 7 -4.5 11.5t-11.5 4.5t-11.5 -4.5t-4.5 -11.5z" />
    <glyph glyph-name="uniE6A6" unicode="&#xe6a6;" 
d="M643 277l-35 -34l-47 47l86 85h41q54 0 86 31q39 39 39 122v18l-100 -47l-34 36l44 101h-18q-41 0 -71.5 -10t-49.5 -29q-32 -32 -32 -86v-41l-85 -86l-138 139l36 36l-133 80l-36 -35l80 -134l37 37l138 -139l-277 -281l-2 -2l-23 -78l34 -31l78 19l284 279l47 -47
l-34 -34l232 -232l85 84zM225 600l10 11l93 -57l-47 -47zM250 15l-60 -14l-15 13l17 59l379 385l3 3v50q0 45 25 70q14 14 36.5 22t52.5 9l-36 -82l56 -58l82 38q-4 -59 -32 -87q-12 -13 -29.5 -19.5t-40.5 -6.5h-50zM590 193l53 52l200 -200l-53 -52z" />
    <glyph glyph-name="uniE6A9" unicode="&#xe6a9;" 
d="M162 192q0 8 1 16q3 41 10 87q10 69 27.5 138t42.5 135l1 2q33 82 106 132t162 50q35 0 69 -8.5t64 -24t56 -38t46 -50.5t33 -60v-2l1 -1q16 -41 28 -104q11 -56 18 -123q2 -21 3 -41q1 -9 2 -15q0 -7 5 -11t11 -4q5 0 8.5 2.5t5.5 6.5t1 8q0 6 -1 16q-1 20 -3 41l-4 32
l-4 32q-2 16 -5 31.5t-5 30.5q-4 16 -7 31t-7 29t-8 27t-9 24q0 2 -1 3q-35 86 -111 140.5t-170 59.5v0v32q0 7 -4.5 11.5t-11.5 4.5t-11.5 -4.5t-4.5 -11.5v-32q-62 -3 -117.5 -29t-98 -70t-65.5 -101q-1 -1 -1 -3q-51 -133 -73 -282q-7 -46 -10 -89q-1 -3 -1 -6v-6
q0 -3 -1 -6h-49q-7 0 -11.5 -4.5t-4.5 -11.5t4.5 -11.5t11.5 -4.5h864q7 0 11.5 4.5t4.5 11.5t-4.5 11.5t-11.5 4.5h-782zM343 26q17 -40 63.5 -65t105.5 -25q39 0 73.5 11.5t59.5 32t36 46.5q3 6 0 12.5t-9 9t-12 -0.5t-9 -9q-12 -30 -51 -50t-88 -20t-88 19.5t-51 50.5
q-3 6 -9 8.5t-12 0t-8.5 -8.5t-0.5 -12z" />
    <glyph glyph-name="uniE6C9" unicode="&#xe6c9;" 
d="M511 649q-6 4 -14 6.5t-16 2.5q-20 0 -36 -13l-209 -174h-117q-44 0 -76 -31.5t-32 -76.5v-167q0 -45 32 -76.5t76 -31.5h141l186 -154q15 -13 35 -13q16 0 30 8q28 18 28 52v616q0 16 -7.5 29.5t-20.5 22.5zM494 -19q0 -9 -7 -14q-1 -1 -2.5 -1.5t-3.5 -0.5q-4 1 -7 3
l-198 164h-157q-26 0 -44.5 18.5t-18.5 45.5v167q0 13 5 24.5t13.5 20t20 13.5t24.5 5h133l222 184q2 2 3.5 2.5t3.5 0.5l6 -2q7 -4 7 -14v-616zM724 522q-7 6 -16.5 5t-15 -8.5t-4.5 -16.5t8 -15q47 -37 72.5 -89t25.5 -109q0 -39 -12 -76t-35.5 -69t-55.5 -57
q-8 -6 -9 -15t5 -16q1 -2 2.5 -3.5t3 -2.5t3.5 -2h4q2 -1 4 -1q4 0 7.5 1t6.5 4q57 44 89 106t32 131q0 67 -30 128t-85 105zM826 608q-5 3 -11 3t-11 -3.5t-8 -8.5q-4 -8 -1 -17t11 -13q74 -39 118 -115t44 -165q0 -92 -46 -169t-124 -114q-8 -4 -11 -13t1 -17
q6 -13 20 -13q5 0 9 3q89 42 142.5 130.5t53.5 192.5q0 50 -13.5 98.5t-37.5 90t-59 75.5t-77 55z" />
    <glyph glyph-name="uniE6F0" unicode="&#xe6f0;" 
d="M425 22q-5 7 -10 7q-96 9 -165 36q-50 19 -76 45q-10 9 -17 21t-7 25v25v26q41 -30 94 -49.5t124 -30.5l9 -2l-2 9q-6 28 -8 54v5h-5q-71 12 -122 33q-23 10 -39.5 20.5t-28.5 22.5q-22 22 -22 45v17v36q81 -60 221 -81l5 -1l2 5q7 27 18 50l3 8l-8 1q-87 11 -148 36
q-45 19 -70 43q-23 22 -23 45v13v42q44 -32 109 -54q43 -15 92 -23.5t103 -11.5h2q11 0 16 4q32 30 77 51l29 14l-32 -2q-153 -8 -270 28q-53 17 -86 41q-39 28 -40 60q0 31 38 60q32 23 85 41q40 13 85.5 20.5t97.5 9.5q108 4 202 -18q30 -7 52 -14t47.5 -20t44.5 -30
q10 -10 17 -22t7 -26q1 -12 -6 -26t-25 -29q-32 -26 -97 -48l-27 -9l28 -3q23 -3 41 -7t34 -10h1q9 -3 14 0q9 5 18.5 11t18.5 13v-22v-22v-3l3 -2q25 -15 52 -38l10 -9v14v38v34v37v72q5 57 -49 104q-33 29 -83 51q-24 10 -50 18.5t-54.5 15t-60.5 10.5q-115 14 -226 -3
q-48 -7 -89 -19t-76 -30q-10 -4 -19 -9t-17 -10.5t-15.5 -11t-14.5 -11.5t-13 -12q-15 -16 -26 -36t-12 -44q-1 -181 -1 -404v-81q1 -46 43 -87q48 -46 137 -75q92 -29 200 -32l16 -1l-12 12q-27 26 -44 50zM929 282q-25 90 -99 146q-37 28 -82 41q-45 14 -91 11
q-56 -3 -107 -30.5t-86 -72.5q-61 -79 -57 -179q1 -47 18 -90.5t47 -78.5q29 -34 68 -57t82 -31q13 -3 25 -4t25 -1q70 0 130 34q19 11 36 25t32 30.5t27 35.5t20 40q37 88 12 181zM639 21q34 16 39 105q2 -35 14.5 -65t30.5 -43q-12 -2 -37 -2t-47 5zM792 79q-28 -7 -55 6
q-29 14 -47 46l-11 20l1 8l-3 -5v1v-1l-10 -20q-17 -33 -44.5 -48.5t-57.5 -8.5q-7 2 -14 5t-13 7.5t-11.5 10t-10.5 12.5q-21 30 -21 77q0 21 7 38.5t22 32t26 22t31 20.5q3 2 5 3t4.5 2.5t4 3t4 3t4.5 2.5q9 6 17.5 12.5t15.5 13t12 12t10 10.5q12 15 20 28
q5 -8 12.5 -17.5t17 -19.5t21 -20.5t23.5 -19.5q8 -6 27 -17q20 -13 30.5 -21t24.5 -22t20 -30.5t6 -36.5q0 -47 -20 -74.5t-48 -34.5z" />
    <glyph glyph-name="uniE6F6" unicode="&#xe6f6;" 
d="M525 20q-140 0 -248 29t-137 73q-3 -4 -4.5 -7t-3 -6.5t-2 -7.5t-0.5 -7q0 -36 53 -66t144 -47.5t198 -17.5q65 0 125 6.5t108.5 18.5t85 28.5t56.5 36t20 41.5q0 14 -9 28q-15 -22 -50.5 -41t-86 -32.5t-115 -21t-134.5 -7.5zM525 519q46 0 90.5 4.5t83.5 12t73.5 18.5
t61.5 25t46.5 30t29.5 34t10 37q0 44 -52.5 81t-143.5 58.5t-199 21.5q-54 0 -105 -5.5t-94.5 -16t-80 -25.5t-62 -32.5t-39.5 -38.5t-14 -43q0 -33 31.5 -62.5t84 -51t126 -34.5t153.5 -13zM351 392v57q-80 13 -136 36.5t-75 52.5q-5 -7 -7.5 -14t-2.5 -15
q0 -15 10.5 -29.5t29.5 -27.5t46.5 -24t61.5 -20t73 -16zM700 449v-57q99 17 159.5 48t60.5 69q0 14 -9 29q-13 -20 -43 -37t-72.5 -30.5t-95.5 -21.5zM700 309v-57q99 17 159.5 48.5t60.5 68.5q0 14 -9 29q-10 -15 -29.5 -28.5t-46.5 -24.5t-61.5 -20.5t-73.5 -15.5z
M351 252v57q-80 13 -136 36.5t-75 52.5q-3 -4 -4 -8l-4 -6q-1 -4 -1.5 -7.5t-0.5 -7.5q0 -7 2.5 -14.5t7.5 -15t12.5 -14t17.5 -13t21.5 -12.5t25 -12t29 -11t32 -9.5t35 -8t38.5 -7.5zM351 113v57q-53 9 -96 22t-73 30t-42 37q-5 -7 -7.5 -14t-2.5 -15q0 -37 60.5 -68.5
t160.5 -48.5zM700 170v-57q99 17 159.5 48.5t60.5 68.5q0 14 -9 29q-20 -29 -75.5 -52.5t-135.5 -36.5zM505 71l5 -3q3 -1 5.5 -1.5t5.5 -0.5q5 0 9 1.5t8 3.5q7 5 7 15l1 21q51 3 80.5 27.5t29.5 65.5q0 11 -2.5 20.5t-6.5 17.5q-9 16 -24 27t-34 18q-6 3 -12.5 5.5
t-12.5 4.5t-13 4l3 90l6 -2l4 -2q3 -1 5 -2q9 -5 10 -6q7 -5 15 -9q7 -3 17 -3q16 0 23 7q3 3 4.5 6t2 6.5t0.5 7.5q0 5 -5.5 13t-15.5 16q-2 2 -4 3l-6 4q-2 1 -5 2l-6 4l-6 2q-16 7 -37 11l1 26q0 3 -1 6t-2.5 5t-4.5 4q-7 5 -16 5t-17 -5l-4 -4q-2 -2 -2.5 -5t-0.5 -6
l-1 -23q-54 -3 -84 -29t-30 -68q0 -21 10 -37q9 -16 25 -27q8 -5 16.5 -10t17.5 -8q10 -4 19.5 -7.5t19.5 -7.5l-3 -92q-23 7 -36 18q-3 2 -7 4.5t-7 4.5q-8 4 -19 5q-5 0 -9.5 -0.5t-8 -2t-6 -3.5t-4.5 -4.5t-2.5 -6t-0.5 -7.5q0 -13 9 -23t24 -17.5t32.5 -12.5t33.5 -8
l-1 -23q0 -10 8 -15zM550 236q7 -4 13.5 -8t11.5 -9q10 -9 10 -23q0 -16 -10 -25t-28 -12zM477 330q-6 5 -8.5 11t-2.5 13q0 8 3 14.5t8 11.5q11 10 29 12l-2 -78q-9 4 -15.5 8t-11.5 8zM477 330z" />
    <glyph glyph-name="uniE720" unicode="&#xe720;" 
d="M839 633h-654q-33 0 -61 -16t-44 -44t-16 -60v-425q0 -50 35.5 -85.5t85.5 -35.5h654q32 0 60 16.5t44 44t16 60.5v425q0 32 -16 60t-44 44t-60 16zM185 571h654q24 0 41 -17q6 -7 10 -14q-2 -1 -4 -3l-367 -256l-7 -6l-8 6l-367 256q-1 2 -4 3q2 2 3.5 4.5t3.5 4.5t4 5
q4 4 8.5 7t10 5t11 3.5t11.5 1.5zM880 47q-17 -17 -41 -17h-654q-24 0 -41 17q-9 8 -13 18.5t-4 22.5v386l367 -257h1v-1h1q3 -2 7 -3.5t8 -1.5h1h1q8 0 15 5h1v1v0l368 257v-386q0 -8 -2 -15t-6 -14t-9 -12z" />
    <glyph glyph-name="uniE7F6" unicode="&#xe7f6;" 
d="M553.5 163q-108.5 0 -185.5 77q-4 4 -6 9t-2 10t2 10t6 9q8 8 19 8t19 -8q40 -40 94 -54t107.5 0t93.5 54l208 208q61 61 61 147.5t-61 147.5t-147.5 61t-147.5 -61l-104 -104q-4 -4 -9 -6t-10 -2t-10 2t-9 6q-3 3 -5 7t-2.5 8t0 8t2.5 8t5 7l104 104q77 77 186 77
t185 -77q51 -50 68.5 -117.5t0 -135.5t-68.5 -118l-208 -208q-77 -77 -185.5 -77zM262 -128q-108 0 -185 77t-77 185.5t77 185.5l208 208q77 77 185 77q27 0 52 -5t48.5 -15t45 -24.5t40.5 -32.5q8 -8 8 -19t-8 -19q-4 -4 -9 -6t-10 -2t-10 2t-9 6q-59 59 -147.5 59
t-147.5 -59l-208 -208q-30 -30 -45.5 -68t-15.5 -80q0 -86 61 -147t147.5 -61t147.5 61l104 104q3 3 7 5t8 2.5t8 0t8 -2.5t7 -5q8 -8 8 -19t-8 -19l-104 -104q-77 -77 -186 -77z" />
    <glyph glyph-name="uniE93E" unicode="&#xe93e;" 
d="M262.5 354q-13.5 0 -25 -7t-18 -18.5t-6.5 -25.5q0 -21 14.5 -35.5t35.5 -14.5t35.5 14.5t14.5 35.5q0 14 -7 25.5t-18.5 18.5t-25 7zM910 568q1 61 -60 78l-563 114q-15 0 -28.5 -6t-23.5 -16t-16 -24t-6 -30v-102h-25q-31 0 -53 -22t-22 -54v-405q0 -32 22 -54t53 -22
h648q20 0 37.5 10t27.5 27.5t10 38.5zM263 684q0 3 0.5 6t1.5 5t2.5 4.5t3.5 4.5l4 2q2 2 5 2.5t5 1.5l550 -114l-2 -4q-2 -3 -8 -6.5t-14 -3.5h-548v102zM861 101q0 -6 -2 -10.5t-5.5 -8t-8 -5.5t-9.5 -2h-648q-10 0 -17.5 7.5t-7.5 18.5v405q0 4 1.5 8t3.5 7t5 5.5t7 4
t8 1.5h623q20 0 35 6.5t15 18.5v-456z" />
    <glyph glyph-name="uniE9D2" unicode="&#xe9d2;" 
d="M906 -22q0 -10 -7.5 -17t-17.5 -7h-743q-5 0 -9.5 2t-7.5 5t-5 7.5t-2 9.5v610q0 4 1 7t2.5 5.5t3.5 5t5 4t6 2.5t6 1h743q10 0 17.5 -7.5t7.5 -17.5v-610zM962 -22v610q0 34 -23.5 58t-57.5 24h-743q-22 0 -40.5 -11t-29.5 -30t-11 -41v-610q0 -33 24 -57t57 -24h743
q34 0 57.5 24t23.5 57zM79 423l432 -177l21 52l-432 177zM100 475q-10 4 -19 1.5t-13.5 -9.5t-6 -15.5t3 -16.5t14.5 -12l432 -177q16 -7 28.5 3t11 26t-18.5 23zM532 246l415 172l-22 53l-415 -173zM510 298q-16 -7 -17.5 -23t11 -26t28.5 -3l415 172q16 7 17.5 23
t-11 26.5t-28.5 3.5z" />
  </font>
</defs>
</svg>
